<svg width="5886" height="1029" viewBox="0 0 5886 1029" fill="none" xmlns="http://www.w3.org/2000/svg">
<path d="M1501.23 187.065H1630.22L1489.66 792H1262.81L1122.25 187.065H1251.25L1356.22 685.247H1396.25L1501.23 187.065ZM1770.99 620.305C1771.59 647.587 1778.7 667.455 1792.34 679.909C1806.58 691.771 1826.74 697.701 1852.84 697.701C1907.99 697.701 1957.22 695.922 2000.51 692.364L2025.42 689.695L2027.2 777.766C1959 794.372 1897.32 802.675 1842.16 802.675C1775.15 802.675 1726.51 784.883 1696.27 749.299C1666.02 713.714 1650.9 655.89 1650.9 575.825C1650.9 416.288 1716.43 336.519 1847.5 336.519C1976.79 336.519 2041.44 403.537 2041.44 537.571L2032.54 620.305H1770.99ZM1924.01 529.565C1924.01 493.98 1918.37 469.368 1907.1 455.727C1895.84 441.493 1875.97 434.377 1847.5 434.377C1819.63 434.377 1799.76 441.79 1787.9 456.617C1776.63 470.851 1770.7 495.167 1770.1 529.565H1924.01ZM2126.63 792V347.195H2244.95V394.344C2294.77 364.69 2342.21 345.416 2387.29 336.519V456.617C2339.25 466.699 2298.03 477.078 2263.63 487.753L2245.84 493.981V792H2126.63ZM2835.71 169.273V792H2717.39V773.318C2675.88 792.89 2640 802.675 2609.75 802.675C2545.11 802.675 2500.03 783.994 2474.53 746.63C2449.03 709.266 2436.28 650.255 2436.28 569.597C2436.28 488.346 2451.4 429.335 2481.65 392.565C2512.49 355.201 2558.75 336.519 2620.43 336.519C2639.4 336.519 2665.8 339.485 2699.6 345.416L2716.5 348.974V169.273H2835.71ZM2704.05 685.247L2716.5 682.578V448.61C2683.88 442.68 2654.82 439.714 2629.32 439.714C2581.28 439.714 2557.26 482.416 2557.26 567.818C2557.26 614.078 2562.6 646.993 2573.28 666.565C2583.95 686.136 2601.45 695.922 2625.76 695.922C2650.67 695.922 2676.77 692.364 2704.05 685.247ZM3043.73 620.305C3044.32 647.587 3051.44 667.455 3065.08 679.909C3079.31 691.771 3099.48 697.701 3125.57 697.701C3180.73 697.701 3229.95 695.922 3273.25 692.364L3298.16 689.695L3299.94 777.766C3231.73 794.372 3170.05 802.675 3114.9 802.675C3047.88 802.675 2999.25 784.883 2969 749.299C2938.75 713.714 2923.63 655.89 2923.63 575.825C2923.63 416.288 2989.16 336.519 3120.23 336.519C3249.52 336.519 3314.17 403.537 3314.17 537.571L3305.27 620.305H3043.73ZM3196.74 529.565C3196.74 493.98 3191.11 469.368 3179.84 455.727C3168.57 441.493 3148.7 434.377 3120.23 434.377C3092.36 434.377 3072.49 441.79 3060.63 456.617C3049.36 470.851 3043.43 495.167 3042.84 529.565H3196.74ZM3410.04 792V187.065H3796.13V293.818H3532.8V471.74H3748.09V578.493H3532.8V792H3410.04ZM4123.11 347.195H4242.32V792H4124V767.091C4081.3 790.814 4044.23 802.675 4012.8 802.675C3951.12 802.675 3909.6 785.773 3888.25 751.968C3866.9 717.569 3856.23 660.338 3856.23 580.273V347.195H3975.43V582.052C3975.43 625.939 3978.99 655.89 3986.11 671.903C3993.23 687.916 4010.43 695.922 4037.71 695.922C4063.8 695.922 4088.42 691.771 4111.55 683.468L4123.11 679.909V347.195ZM4598.82 448.61H4489.39V630.981C4489.39 648.773 4489.69 661.524 4490.28 669.234C4491.47 676.351 4494.73 682.578 4500.07 687.916C4506 693.253 4514.9 695.922 4526.76 695.922L4594.37 694.143L4599.7 789.331C4559.97 798.227 4529.72 802.675 4508.96 802.675C4455.59 802.675 4419.11 790.814 4399.54 767.091C4379.97 742.775 4370.19 698.294 4370.19 633.649V448.61H4317.7V347.195H4370.19V223.539H4489.39V347.195H4598.82V448.61ZM4938.88 347.195H5058.08V792H4939.77V767.091C4897.06 790.814 4860 802.675 4828.56 802.675C4766.88 802.675 4725.37 785.773 4704.02 751.968C4682.67 717.569 4671.99 660.338 4671.99 580.273V347.195H4791.2V582.052C4791.2 625.939 4794.76 655.89 4801.88 671.903C4808.99 687.916 4826.19 695.922 4853.47 695.922C4879.57 695.922 4904.18 691.771 4927.31 683.468L4938.88 679.909V347.195ZM5168.16 792V347.195H5286.48V394.344C5336.3 364.69 5383.74 345.416 5428.81 336.519V456.617C5380.78 466.699 5339.56 477.078 5305.16 487.753L5287.37 493.981V792H5168.16ZM5523.18 397.903C5554.61 356.98 5607.1 336.519 5680.64 336.519C5754.18 336.519 5806.67 356.98 5838.1 397.903C5869.53 438.232 5885.25 495.167 5885.25 568.708C5885.25 724.686 5817.04 802.675 5680.64 802.675C5544.23 802.675 5476.03 724.686 5476.03 568.708C5476.03 495.167 5491.74 438.232 5523.18 397.903ZM5614.81 669.234C5627.26 690.584 5649.2 701.26 5680.64 701.26C5712.07 701.26 5733.72 690.584 5745.58 669.234C5758.03 647.883 5764.26 614.374 5764.26 568.708C5764.26 523.041 5758.03 489.829 5745.58 469.071C5733.72 448.314 5712.07 437.935 5680.64 437.935C5649.2 437.935 5627.26 448.314 5614.81 469.071C5602.94 489.829 5597.01 523.041 5597.01 568.708C5597.01 614.374 5602.94 647.883 5614.81 669.234Z" fill="white"/>
<path fill-rule="evenodd" clip-rule="evenodd" d="M3.36727 844.763L165.276 581.414C163.898 615.447 167.672 649.467 176.482 682.44L113.354 785.119C104.137 800.11 114.923 819.403 132.521 819.403H249.07C250.371 820.92 251.687 822.427 253.016 823.924C271.257 844.472 291.858 862.952 314.401 879.047H22.5345C4.93653 879.047 -5.84954 859.754 3.36727 844.763Z" fill="white"/>
<path fill-rule="evenodd" clip-rule="evenodd" d="M955.771 819.403H838.429C837.127 820.92 835.811 822.427 834.482 823.924C816.241 844.472 795.64 862.952 773.098 879.047H1065.8C1074.36 879.047 1081.31 874.484 1085.13 868.071L978.234 798.654C977.336 809.668 968.273 819.403 955.771 819.403Z" fill="white"/>
<path fill-rule="evenodd" clip-rule="evenodd" d="M1085 868.287L977.495 802.81C979.057 797.157 978.447 790.827 974.938 785.119L911.256 681.539C920.02 648.373 923.694 614.161 922.159 579.95L1084.97 844.763C1089.75 852.545 1089.15 861.487 1085 868.287Z" fill="white"/>
<path fill-rule="evenodd" clip-rule="evenodd" d="M570.139 14.9006C558.43 -4.16703 530.72 -4.16707 519.011 14.9005L203.712 528.323C191.437 548.312 205.82 574.022 229.277 574.022H272.422L544.575 99.2724L816.728 574.022H859.873C883.33 574.022 897.713 548.312 885.437 528.323L570.139 14.9006Z" fill="white"/>
<path fill-rule="evenodd" clip-rule="evenodd" d="M790.753 374.144L885.436 528.323C888.571 533.427 889.967 538.905 889.918 544.231C893.254 584.797 889.8 625.58 879.741 664.816C855.297 668.072 828.495 668.475 800.371 665.781C808.197 643.375 813.231 619.997 815.312 596.209L815.367 596.214C815.996 588.623 816.323 580.997 816.345 573.355L693.972 359.885C724.614 360.678 757.37 365.315 790.753 374.144Z" fill="white"/>
<path fill-rule="evenodd" clip-rule="evenodd" d="M891.041 565.336C891.989 604.304 886.708 643.191 875.362 680.434C864.749 715.269 848.992 748.134 828.69 777.9C801.15 777.542 771.377 773.233 740.996 764.662C758.582 745.684 773.535 724.237 785.383 700.927C801.943 668.346 812.113 632.762 815.311 596.208L815.366 596.213C815.995 588.622 816.322 580.997 816.344 573.355L782.478 514.278C788.969 516.134 795.487 518.185 802.016 520.433C835.623 532.004 865.779 547.523 891.041 565.336Z" fill="white"/>
<path fill-rule="evenodd" clip-rule="evenodd" d="M224.475 710.644C220.477 700.764 216.909 690.684 213.786 680.434C200.393 636.473 195.452 590.221 199.229 544.25C199.177 538.917 200.573 533.433 203.711 528.324L294.443 380.579C329.197 363.485 365.108 354.631 398.507 354.074L272.804 573.353C272.827 580.996 273.154 588.622 273.782 596.214L273.838 596.209C277.036 632.763 287.205 668.347 303.766 700.928C306.864 707.024 310.175 712.992 313.69 718.823C281.599 723.3 250.873 720.589 224.475 710.644Z" fill="white"/>
<path fill-rule="evenodd" clip-rule="evenodd" d="M451.499 916.072C428.107 909.486 405.409 900.372 383.793 888.846C343.474 867.347 307.709 837.876 278.539 802.117C249.369 766.357 227.366 725.01 213.786 680.434C200.393 636.473 195.452 590.221 199.229 544.25C199.214 542.677 199.324 541.092 199.568 539.507C228.18 529.235 258.928 521.285 291.241 516.167C296.467 515.34 301.676 514.595 306.867 513.932L272.804 573.353C272.827 580.996 273.154 588.622 273.782 596.214L273.838 596.209C277.036 632.763 287.205 668.347 303.766 700.928C320.326 733.509 342.953 762.45 370.355 786.098C397.756 809.746 429.396 827.638 463.467 838.753C489.761 847.331 517.105 851.743 544.56 851.88C553.02 851.839 561.469 851.391 569.881 850.542C537.506 876.929 497.261 899.474 451.499 916.072Z" fill="white"/>
<path fill-rule="evenodd" clip-rule="evenodd" d="M833.457 770.727C826.425 781.596 818.8 792.077 810.61 802.117C781.44 837.876 745.674 867.347 705.355 888.846C665.036 910.345 620.953 923.451 575.624 927.417C570.445 927.87 565.261 928.203 560.077 928.416C554.918 928.654 549.749 928.773 544.574 928.773C539.39 928.773 534.213 928.653 529.045 928.415C523.869 928.202 518.695 927.869 513.525 927.417C468.195 923.451 424.112 910.345 383.793 888.846C350.032 870.843 319.463 847.251 293.286 819.058C291.778 808.434 291 797.6 291 786.6C291 758.035 296.245 730.593 305.899 705.041C322.248 735.947 344.112 763.45 370.355 786.098C397.756 809.746 429.396 827.638 463.467 838.753C489.762 847.331 517.108 851.743 544.564 851.88C572.027 851.745 599.38 847.333 625.682 838.753C659.753 827.638 691.392 809.746 718.794 786.098C746.195 762.45 768.822 733.509 785.383 700.928C791.096 689.687 796.049 678.088 800.218 666.216C819.116 697.539 830.869 732.992 833.457 770.727Z" fill="white"/>
<path fill-rule="evenodd" clip-rule="evenodd" d="M377.496 885.402C339.746 864.242 306.181 836.003 278.539 802.117C249.37 766.357 227.366 725.01 213.787 680.434C210.344 669.133 207.459 657.68 205.138 646.119C223.232 613.025 249.96 581.236 283.892 554.011L272.805 573.352C272.827 580.995 273.154 588.622 273.782 596.214L273.838 596.209C277.036 632.763 287.206 668.347 303.766 700.928C320.327 733.509 342.954 762.45 370.355 786.098C397.757 809.746 429.396 827.638 463.468 838.753C474.305 842.289 485.32 845.116 496.449 847.229C457.103 868.38 416.28 881.016 377.496 885.402Z" fill="white"/>
<path fill-rule="evenodd" clip-rule="evenodd" d="M718.2 611.339C718.2 699.735 652.511 772.788 567.285 784.347V872.963H526.526V785.115C438.11 776.534 369 702.008 369 611.339C369 552.84 426.773 452.814 476.157 367.313L476.157 367.313C508.175 311.877 536.667 262.547 543.6 234.6C557.464 269.553 584.413 315.306 613.082 363.98C665.278 452.599 723.177 550.901 718.2 611.339ZM556.862 751.378C628.005 745.16 683.812 685.438 683.812 612.682C687.781 564.487 641.61 486.099 599.988 415.432L599.988 415.432C577.126 376.618 555.637 340.134 544.582 312.261C539.053 334.547 516.333 373.884 490.801 418.089C451.421 486.27 405.352 566.033 405.352 612.682C405.352 685.499 461.252 745.26 532.479 751.393V690.264L444.778 599.447C440.101 594.604 440.236 586.886 445.079 582.209C449.922 577.532 457.64 577.666 462.317 582.51L532.479 655.165V544.372C531.67 543.861 530.909 543.245 530.215 542.526L492.244 503.207C487.567 498.364 487.702 490.646 492.545 485.969C497.389 481.292 505.107 481.426 509.784 486.27L545.113 522.854L581.254 485.429C585.931 480.585 593.649 480.451 598.492 485.128C603.336 489.805 603.47 497.523 598.793 502.366L556.862 545.787V648.935L624.758 578.626C629.435 573.783 637.153 573.648 641.997 578.326C646.84 583.003 646.975 590.721 642.298 595.564L556.862 684.035V751.378Z" fill="white"/>
</svg>
